<svg xmlns="http://www.w3.org/2000/svg" x="0px" y="0px" width="500" height="500" viewBox="0 0 100 100">
<path fill="#ee3e54" d="M12.725,26.858c-1.105,0-2,0.895-2,2s0.895,2,2,2s2-0.895,2-2S13.83,26.858,12.725,26.858z"></path><path fill="#f1bc19" d="M76.725,11.858c-0.551,0-1,0.449-1,1s0.449,1,1,1s1-0.449,1-1S77.276,11.858,76.725,11.858z"></path><path fill="#fce0a2" d="M49.725,12.858c-20.434,0-37,16.566-37,37s16.566,37,37,37s37-16.566,37-37 S70.159,12.858,49.725,12.858z"></path><path fill="#f1bc19" d="M82.725,10.858c-2.211,0-4,1.789-4,4s1.789,4,4,4s4-1.789,4-4S84.936,10.858,82.725,10.858z"></path><path fill="#ee3e54" d="M86.725,21.858c-1.105,0-2,0.895-2,2s0.895,2,2,2s2-0.895,2-2S87.83,21.858,86.725,21.858z"></path><path fill="#fbcd59" d="M80.725,73.858c-1.105,0-2,0.895-2,2s0.895,2,2,2s2-0.895,2-2S81.83,73.858,80.725,73.858z M14.725,58.858c-2.211,0-4,1.789-4,4s1.789,4,4,4s4-1.789,4-4S16.936,58.858,14.725,58.858z"></path><path fill="#ee3e54" d="M24.725,84.858c-1.105,0-2,0.895-2,2s0.895,2,2,2s2-0.895,2-2S25.83,84.858,24.725,84.858z"></path><path fill="#fff" d="M18.225,40.858c-1.379,0-2.5,1.121-2.5,2.5s1.121,2.5,2.5,2.5s2.5-1.121,2.5-2.5 S19.604,40.858,18.225,40.858z"></path><path fill="#f1bc19" d="M20.725,64.858c-0.551,0-1,0.449-1,1s0.449,1,1,1s1-0.449,1-1S21.276,64.858,20.725,64.858z"></path><path fill="#fff" d="M79.725,31.858c-0.551,0-1,0.449-1,1s0.449,1,1,1s1-0.449,1-1S80.276,31.858,79.725,31.858z"></path><g><path fill="#e55838" d="M76.283,66.144c-3.935-2.801-6.908-7.502-10.408-7.502c-1.975,0-3.822,1.014-5.722,2.884 c-3.935,3.86-7.637,10.475-13.907,12.127c-1.404-5.234-5.467-13.043-7.059-13.516c-2.208-0.661-3.094,0.548-4.325,0.233 c3.927-1.404,7.299-4.881,10.182-9.101c6.548-9.559,10.565-22.925,12.758-24.652c0.015-0.015,0.03-0.03,0.053-0.037 c0.128-0.068,0.255-0.12,0.375-0.15h0.007c0.165-0.06,0.323-0.082,0.481-0.082c1.502,0,2.883,2.088,4.851,6.172 C66.01,37.587,72.153,58.259,76.283,66.144z"></path><path fill="#f47c22" d="M66.183,58.657c-0.098-0.008-0.203-0.015-0.308-0.015c-1.975,0-3.822,1.014-5.722,2.884 c-3.935,3.86-7.637,10.475-13.907,12.127c-0.706-2.606-2.065-5.857-3.447-8.515c0,0,3.247-0.324,6.435-2.358 c0.842-0.537,1.623-1.09,2.432-1.841c1.396-1.295,2.531-3.303,3.395-5.353c3.777-8.973,1.825-25.538,3.897-26.62 c0.413-0.218,0.871,0.098,1.344,0.901c0.113,0.195,0.233,0.413,0.345,0.661c1.211,2.572,2.207,8.143,3.502,16.116 c0.296,1.824,0.583,3.909,0.871,5.98C65.295,54.583,65.921,56.49,66.183,58.657z"></path><path fill="#fcc938" d="M62.629,59.514l0.02,0.05c-0.83,0.48-1.66,1.14-2.5,1.96c-3.93,3.86-7.63,10.48-13.9,12.13 c-0.46-1.7-1.2-3.67-2.04-5.57l0.03-0.02c18.07-7.43,15.25-20.46,15.12-30.83c-0.03-2.6-0.13-5.19,0.26-5.3 c0.48-0.14,1.58,4.48,2.07,7.59C63.639,51.844,62.629,59.514,62.629,59.514z"></path><path fill="#068e8a" d="M57.803,26.616c-2.193,1.727-6.21,15.093-12.758,24.652l-6.308-4.648c0,0,2.628-4.505,5.256-5.632 c2.628-1.126,4.483-1.141,9.011-8.26C55.107,29.417,56.549,27.314,57.803,26.616z"></path><path fill="#00a5a5" d="M45.045,51.268c-2.883,4.22-6.255,7.697-10.182,9.101l-11.143-7.742l15.018-6.007L45.045,51.268z"></path><path fill="#e55838" d="M49.744,43.127c-1.464,2.959-2.851,5.438-4.699,8.141l-6.308-4.648 C43.614,46.885,47.161,45.097,49.744,43.127z"></path><g><path fill="#472b29" d="M46.226,74.35c-0.309,0-0.592-0.206-0.676-0.519c-1.469-5.482-5.426-12.655-6.571-13.037 c-1.083-0.323-1.771-0.12-2.439,0.078c-0.568,0.17-1.154,0.344-1.857,0.164c-0.081-0.021-0.158-0.056-0.227-0.104l-11.139-7.754 c-0.211-0.146-0.325-0.398-0.295-0.654s0.197-0.475,0.436-0.57l14.805-5.906c0.573-0.936,2.963-4.639,5.464-5.708 c0.316-0.135,0.621-0.255,0.92-0.372c2.094-0.819,3.902-1.527,7.783-7.613c2.904-4.554,4.474-6.701,6.308-6.701 c0.001,0,0.002,0,0.003,0c1.952,0.002,3.431,2.312,5.477,6.574c1.02,2.123,2.64,6.834,4.516,12.288 c2.697,7.843,5.754,16.731,8.156,21.326c0.15,0.287,0.084,0.64-0.16,0.853c-0.245,0.211-0.603,0.229-0.866,0.042 c-1.425-1.017-2.702-2.251-3.937-3.444c-2.093-2.024-4.071-3.936-6.057-3.938c-0.002,0-0.003,0-0.005,0 c-1.703,0-3.366,0.852-5.231,2.681c-1.053,1.031-2.091,2.269-3.191,3.578c-2.937,3.497-6.266,7.462-11.037,8.713 C46.344,74.342,46.284,74.35,46.226,74.35z M37.893,59.224c0.437,0,0.929,0.063,1.489,0.229c2.013,0.604,5.854,8.43,7.324,13.325 c3.995-1.315,6.874-4.744,9.663-8.065c1.122-1.336,2.182-2.599,3.283-3.678c2.144-2.102,4.118-3.081,6.211-3.081 c0.002,0,0.004,0,0.006,0c2.552,0.002,4.727,2.104,7.029,4.331c0.455,0.439,0.915,0.884,1.384,1.319 c-2.17-4.96-4.644-12.152-6.874-18.634c-1.861-5.413-3.469-10.088-4.453-12.138c-1.372-2.857-2.946-5.778-4.216-5.779 c0,0,0,0-0.001,0c-1.175,0-2.941,2.623-5.128,6.053c-4.126,6.471-6.131,7.256-8.453,8.165c-0.287,0.112-0.579,0.227-0.88,0.355 c-1.983,0.848-4.233,4.14-4.932,5.337c-0.079,0.135-0.2,0.239-0.345,0.297l-13.816,5.512l9.954,6.929 c0.274,0.036,0.559-0.039,1.002-0.171C36.603,59.393,37.171,59.224,37.893,59.224z"></path><path fill="#472b29" d="M34.856,60.858c-0.205,0-0.397-0.127-0.471-0.331c-0.093-0.261,0.042-0.547,0.302-0.64 c8.721-3.122,14.712-16.767,18.676-25.795c2.483-5.656,3.635-8.158,4.891-8.158c0,0,0,0,0.001,0c0.276,0,0.5,0.225,0.5,0.501 c0,0.275-0.224,0.499-0.5,0.499h0c-0.708,0.119-2.444,4.072-3.976,7.56c-4.033,9.187-10.128,23.068-19.255,26.335 C34.969,60.849,34.912,60.858,34.856,60.858z"></path><path fill="#472b29" d="M45.046,51.766c-0.103,0-0.207-0.032-0.296-0.098l-6.306-4.655 c-0.222-0.164-0.27-0.478-0.105-0.699c0.165-0.222,0.477-0.268,0.699-0.105l6.306,4.655c0.222,0.164,0.27,0.478,0.105,0.699 C45.351,51.695,45.2,51.766,45.046,51.766z"></path><path fill="#472b29" d="M66.183,58.907c-0.125,0-0.232-0.093-0.248-0.22c-0.258-2.145-0.528-4.229-0.802-6.197 c-0.019-0.137,0.076-0.263,0.213-0.282c0.131-0.016,0.263,0.077,0.282,0.214c0.274,1.971,0.544,4.059,0.803,6.205 c0.017,0.138-0.081,0.262-0.218,0.278C66.203,58.906,66.193,58.907,66.183,58.907z"></path><path fill="#472b29" d="M65.119,50.874c-0.122,0-0.229-0.09-0.247-0.214c-0.083-0.572-0.167-1.134-0.25-1.685 c-0.021-0.137,0.073-0.265,0.209-0.285c0.134-0.021,0.265,0.073,0.285,0.209c0.084,0.553,0.168,1.116,0.251,1.688 c0.02,0.137-0.075,0.264-0.211,0.283C65.144,50.873,65.131,50.874,65.119,50.874z"></path><path fill="#472b29" d="M51.377,60.96c-0.068,0-0.136-0.027-0.186-0.082c-0.092-0.103-0.084-0.261,0.018-0.354 c1.607-1.452,2.826-3.146,3.622-5.035c2.118-5.027,2.416-12.345,2.656-18.224c0.214-5.246,0.372-8.008,1.356-8.521 c0.377-0.198,0.977-0.189,1.675,0.996c1.33,2.238,2.833,8.219,4.232,16.84c0.022,0.137-0.07,0.265-0.207,0.287 c-0.132,0.02-0.265-0.07-0.287-0.207c-1.39-8.561-2.871-14.479-4.169-16.665c-0.226-0.383-0.656-0.99-1.013-0.809 c-0.775,0.405-0.928,4.143-1.089,8.1c-0.242,5.919-0.542,13.286-2.695,18.396c-0.824,1.957-2.085,3.711-3.748,5.213 C51.497,60.938,51.438,60.96,51.377,60.96z"></path><path fill="#472b29" d="M42.799,65.388c-0.116,0-0.221-0.082-0.245-0.2c-0.027-0.136,0.061-0.268,0.196-0.295 c0.03-0.006,3.038-0.63,6.146-2.613c0.116-0.073,0.271-0.039,0.345,0.076c0.074,0.116,0.04,0.271-0.077,0.346 c-3.19,2.036-6.19,2.656-6.316,2.682C42.833,65.386,42.816,65.388,42.799,65.388z"></path><path fill="#472b29" d="M47.439,44.48c-0.087,0-0.172-0.046-0.218-0.128c-0.067-0.121-0.024-0.273,0.096-0.341 c0.865-0.482,1.664-1.014,2.544-1.608c0.114-0.078,0.27-0.049,0.347,0.067c0.078,0.114,0.047,0.27-0.067,0.347 c-0.89,0.602-1.698,1.139-2.58,1.632C47.522,44.471,47.48,44.48,47.439,44.48z"></path><path fill="#472b29" d="M38.737,46.87c-0.128,0-0.237-0.098-0.249-0.229c-0.012-0.137,0.09-0.259,0.227-0.271 c2.147-0.188,3.942-0.519,5.487-1.008c0.132-0.04,0.272,0.031,0.314,0.163c0.042,0.131-0.031,0.271-0.163,0.313 c-1.58,0.501-3.41,0.838-5.594,1.029C38.752,46.87,38.745,46.87,38.737,46.87z"></path><path fill="#472b29" d="M44.241,68.313c-0.098,0-0.191-0.059-0.231-0.155c-0.052-0.127,0.009-0.273,0.136-0.326 c15.9-6.541,15.462-17.433,15.076-27.043c-0.05-1.231-0.096-2.394-0.111-3.549l-0.014-0.957c-0.055-3.545-0.008-4.455,0.455-4.588 c0.093-0.028,0.194-0.011,0.283,0.046c0.737,0.47,1.815,5.919,2.104,7.744c1.933,12.218,0.95,19.984,0.94,20.061 c-0.018,0.138-0.147,0.229-0.281,0.216c-0.137-0.019-0.233-0.144-0.215-0.28c0.01-0.077,0.982-7.778-0.938-19.918 c-0.462-2.926-1.321-6.4-1.765-7.236c-0.136,0.619-0.107,2.445-0.084,3.948l0.014,0.959c0.015,1.147,0.061,2.307,0.11,3.534 c0.393,9.774,0.838,20.853-15.385,27.526C44.305,68.308,44.272,68.313,44.241,68.313z"></path></g></g>
</svg>